<svg width="32" height="32" viewBox="0 0 32 32" fill="none" xmlns="http://www.w3.org/2000/svg">
<path d="M16.0053 2.66675C9.0053 2.66675 3.26397 8.06675 2.71997 14.9294L9.86664 17.8841C10.4922 17.456 11.2326 17.2273 11.9906 17.2281C12.0613 17.2281 12.1293 17.2321 12.2 17.2347L15.3786 12.6321V12.5667C15.3786 9.79342 17.632 7.54008 20.4053 7.54008C23.1773 7.54008 25.432 9.79608 25.432 12.5694C25.432 15.3427 23.176 17.5974 20.4053 17.5974H20.2893L15.76 20.8321C15.76 20.8894 15.764 20.9494 15.764 21.0094C15.7647 21.5046 15.6678 21.995 15.4788 22.4527C15.2898 22.9104 15.0125 23.3263 14.6627 23.6768C14.3129 24.0272 13.8974 24.3053 13.4401 24.495C12.9827 24.6848 12.4925 24.7826 11.9973 24.7827C11.1263 24.7796 10.2829 24.4766 9.609 23.9246C8.93515 23.3726 8.47194 22.6055 8.2973 21.7521L3.17997 19.6334C4.76397 25.2294 9.90264 29.3334 16.0066 29.3334C23.3693 29.3334 29.3373 23.3641 29.3373 16.0001C29.3373 8.63742 23.368 2.66675 16.0053 2.66675ZM9.4373 22.2227C9.72797 22.8254 10.2306 23.3321 10.896 23.6107C11.5828 23.8659 12.3417 23.8453 13.0136 23.5532C13.6855 23.261 14.2182 22.7201 14.5 22.0438C14.7817 21.3674 14.7907 20.6083 14.525 19.9255C14.2592 19.2427 13.7395 18.6893 13.0746 18.3814C12.4088 18.1044 11.6623 18.0925 10.988 18.3481L12.68 19.0481C12.9327 19.1535 13.1622 19.3078 13.3554 19.502C13.5485 19.6962 13.7014 19.9266 13.8054 20.1799C13.9094 20.4333 13.9625 20.7047 13.9616 20.9785C13.9606 21.2524 13.9057 21.5234 13.8 21.7761C13.6949 22.0289 13.541 22.2585 13.3472 22.4518C13.1533 22.6451 12.9233 22.7984 12.6702 22.9027C12.4171 23.0071 12.1459 23.0606 11.8721 23.0602C11.5984 23.0597 11.3274 23.0053 11.0746 22.9001L9.4373 22.2227V22.2227ZM23.7573 12.5627C23.7559 11.6747 23.4024 10.8234 22.7743 10.1955C22.1462 9.56765 21.2947 9.21447 20.4066 9.21341C19.5382 9.24343 18.7153 9.60952 18.1116 10.2345C17.5079 10.8595 17.1704 11.6945 17.1704 12.5634C17.1704 13.4324 17.5079 14.2674 18.1116 14.8923C18.7153 15.5173 19.5382 15.8834 20.4066 15.9134C21.2951 15.9131 22.147 15.5599 22.7751 14.9316C23.4031 14.3032 23.756 13.4512 23.756 12.5627H23.7573ZM20.4133 10.0401C20.7535 10.0246 21.0932 10.0782 21.4121 10.1978C21.7309 10.3173 22.0222 10.5003 22.2683 10.7356C22.5144 10.9709 22.7103 11.2537 22.8441 11.5668C22.9778 11.88 23.0467 12.217 23.0465 12.5575C23.0463 12.898 22.9771 13.2349 22.843 13.5479C22.7089 13.8609 22.5128 14.1435 22.2664 14.3785C22.02 14.6136 21.7285 14.7962 21.4096 14.9154C21.0906 15.0346 20.7508 15.0879 20.4106 15.0721C19.7634 15.0419 19.1527 14.7635 18.7054 14.2947C18.2582 13.8259 18.0088 13.2027 18.0092 12.5548C18.0095 11.9069 18.2595 11.284 18.7073 10.8157C19.155 10.3473 19.766 10.0695 20.4133 10.0401V10.0401Z" fill="white"/>
</svg>
